<svg width="125" height="124" viewBox="0 0 125 124" fill="none" xmlns="http://www.w3.org/2000/svg">
<path d="M25.1059 55.4988C25.3656 58.5846 24.7975 59.2505 22.2659 59.8189C16.1639 61.1616 10.0673 62.5529 3.97608 63.993C1.1036 64.6751 0.146115 63.9929 0.0325144 61.0208C-0.107269 54.6177 0.926823 48.2433 3.08352 42.2134C7.43328 29.5334 15.7904 18.6157 26.891 11.1113C34.2108 5.87689 42.6938 2.50443 51.6074 1.28529C56.37 0.516021 61.2031 0.276354 66.0185 0.570669C74.1646 1.07982 82.1395 3.13574 89.5176 6.62869C98.0882 10.8892 105.575 17.0491 111.41 24.6403C115.757 30.1234 119.093 36.3381 121.261 42.9929C123.398 49.0368 124.4 55.4243 124.215 61.8329C124.117 63.457 123.371 64.4152 121.699 64.1229C118.324 63.5544 114.948 62.9048 111.605 62.1902C108.262 61.4755 104.805 60.566 101.413 59.8027C99.9851 59.4779 98.8491 58.9906 98.9302 57.2041C99.0114 55.4175 99.9527 54.7679 101.543 55.1577C106.12 56.2784 110.664 57.4477 115.256 58.406C119.362 59.2992 119.914 58.6658 119.33 54.573C117.979 44.8289 114.162 35.5923 108.239 27.7409C102.317 19.8895 94.4868 13.6841 85.4929 9.71453C78.2002 6.32845 70.2602 4.56634 62.2209 4.54981C56.9101 4.78298 51.6389 5.5778 46.4953 6.92102C40.0396 8.55298 33.9718 11.4512 28.6437 15.4477C20.6322 21.1447 14.1899 28.7764 9.91579 37.6333C7.16145 43.2546 5.34681 49.2898 4.54409 55.4988C4.17083 58.2598 4.83619 59.1206 7.51393 58.6171C10.9544 57.9675 14.33 56.9929 17.7705 56.392C20.1561 55.9372 22.558 55.8236 25.1059 55.4988Z" fill="#101920"/>
<path d="M52.7597 123.712C46.8834 124.451 40.9186 123.487 35.5734 120.935C24.1242 115.573 14.4409 107.054 7.66009 96.3781C3.44062 89.8816 0.340916 83.044 0.0812571 75.1832C-0.0323439 71.9349 0.908921 71.1391 4.13843 71.9349C11.4391 73.8284 18.4767 76.6216 25.0897 80.2505C31.5012 83.4416 36.9755 88.2431 40.9776 94.1855C43.0579 97.2824 44.8867 100.541 46.4467 103.93C48.5889 108.803 50.3903 113.773 52.1592 118.775C52.5312 120.395 52.7324 122.05 52.7597 123.712ZM6.57274 76.6124C3.99238 76.7748 4.46303 78.4802 4.82006 79.4709C6.11219 83.572 7.74059 87.5593 9.68868 91.392C15.6325 101.931 24.4988 110.522 35.2164 116.127C38.3735 117.625 41.6668 118.816 45.0511 119.684C46.9011 120.253 47.5502 119.473 47.3393 117.541C47.244 116.943 47.075 116.359 46.8362 115.803C45.473 112.425 44.2234 108.998 42.6979 105.717C40.4699 100.431 37.3335 95.5776 33.4312 91.3758C28.1353 86.3509 21.8894 82.4359 15.0604 79.8607C12.1392 78.7238 9.16934 77.6356 6.57274 76.6124Z" fill="#101920"/>
<path d="M75.8039 123.842H75.5931C71.5683 123.842 70.5458 122.462 71.8441 118.564C74.3161 110.454 77.8004 102.689 82.2143 95.4523C86.0061 89.2657 91.4311 84.2468 97.8913 80.9489C104.269 77.798 110.874 75.2644 117.512 72.5521C118.67 72.1769 119.881 71.9904 121.098 71.9999C123.533 71.9024 124.247 72.9094 124.019 75.3618C123.063 83.7665 119.869 91.7597 114.769 98.5057C108.528 107.511 100.168 114.841 90.426 119.847C86.1092 122.088 80.8186 124.134 75.8039 123.842ZM119.881 78.9187C119.557 76.9697 118.924 76.2876 117.171 76.8885C113.487 78.1391 109.836 79.5358 106.265 81.0625C101.124 83.1272 96.3757 86.0609 92.2275 89.7354C84.1131 97.2226 80.1857 107.243 76.5505 117.346C75.804 119.424 76.8913 120.513 79.0659 119.895C81.9486 119.213 84.7544 118.239 87.44 116.988C99.3676 111.015 109.141 101.472 115.402 89.6866C117.074 86.1745 118.569 82.5807 119.881 78.9187Z" fill="#101920"/>
<path d="M62.3992 44.1298C69.6048 44.2598 76.5669 45.2667 82.7662 49.0022C86.1611 50.9481 89.0933 53.6086 91.3601 56.7997C93.6269 59.9908 95.1743 63.6365 95.8952 67.4848C96.1527 69.2267 96.2072 70.9925 96.0575 72.747C96.0346 73.0905 95.9334 73.4242 95.7619 73.7226C95.5903 74.021 95.3529 74.2761 95.0676 74.4686C94.8305 74.5762 94.571 74.6253 94.311 74.6115C94.0509 74.5976 93.798 74.5214 93.5736 74.3893C93.3492 74.2571 93.1599 74.0728 93.0217 73.852C92.8834 73.6312 92.8003 73.3803 92.7793 73.1206C92.4975 72.0081 92.2807 70.8801 92.1301 69.7423C91.3882 64.9876 89.2793 60.552 86.0606 56.9767C83.5459 54.2404 80.405 52.1559 76.9077 50.9025C70.2852 48.1634 63.0434 47.2764 55.9564 48.3363C50.073 48.9884 44.5069 51.3419 39.9386 55.109C35.9603 58.7025 33.2266 63.4688 32.1326 68.7192C31.8243 70.0997 31.5646 71.4964 31.3374 72.8931C31.3322 73.163 31.2641 73.4279 31.1388 73.6668C31.0135 73.9057 30.8343 74.1122 30.6154 74.2698C30.3965 74.4274 30.1439 74.5318 29.8777 74.5748C29.6115 74.6177 29.3389 74.598 29.0816 74.5173C28.8402 74.4911 28.6063 74.4172 28.3937 74.2998C28.181 74.1825 27.9937 74.024 27.8427 73.8336C27.6917 73.6433 27.5801 73.4247 27.5142 73.1908C27.4483 72.9569 27.4294 72.7122 27.4587 72.4709C27.4203 67.5751 28.8568 62.7813 31.5809 58.7145C33.6317 55.3027 36.3658 52.3524 39.6112 50.0493C42.8565 47.7461 46.543 46.1399 50.4387 45.3317C54.4005 44.712 58.3934 44.3108 62.3992 44.1298Z" fill="#101920"/>
<path d="M62.1074 61.4269C62.854 61.4269 63.6005 61.4269 64.347 61.4269C67.755 61.167 70.0758 62.71 72.2018 65.3411C75.9181 69.9374 75.2527 74.9884 73.5163 79.7309C71.4065 85.5453 64.1037 87.8515 58.1477 86.0812C54.123 84.8144 51.1369 82.5243 50.0334 78.7726C47.9886 72.2761 48.946 65.6497 55.8108 62.0603C57.5797 61.1346 60.014 61.4594 62.1562 61.2158L62.1074 61.4269ZM70.514 73.8515C70.5931 71.5171 69.747 69.2461 68.1602 67.5334C66.5734 65.8206 64.3744 64.8049 62.0426 64.7077C58.1152 64.6102 53.3278 69.1577 53.3602 73.1369C53.3602 78.8051 57.32 81.9072 62.1074 82.4107C66.2133 82.8492 70.4166 78.2366 70.514 73.8515Z" fill="#101920"/>
</svg>
